<svg width="140" height="24" viewBox="0 0 140 24" fill="none" xmlns="http://www.w3.org/2000/svg">
<path d="M0.3 23V1.37H10.38L12.9 12.44L15.48 1.37H25.23V23H18.78V11.12L15.84 23H9.69L6.75 11.12V23H0.3ZM40.3076 14.54H47.8076C47.2676 17.1 45.9576 19.23 43.8776 20.93C41.8176 22.61 39.4576 23.45 36.7976 23.45C33.6976 23.45 31.0376 22.35 28.8176 20.15C26.6176 17.95 25.5176 15.3 25.5176 12.2C25.5176 9.1 26.6176 6.45 28.8176 4.25C31.0376 2.03 33.6976 0.919998 36.7976 0.919998C39.4576 0.919998 41.8176 1.77 43.8776 3.47C45.9576 5.15 47.2676 7.27 47.8076 9.83H40.3076C39.4676 8.59 38.2976 7.97 36.7976 7.97C35.6176 7.97 34.6176 8.38 33.7976 9.2C32.9776 10.02 32.5676 11.02 32.5676 12.2C32.5676 13.38 32.9776 14.38 33.7976 15.2C34.6176 16.02 35.6176 16.43 36.7976 16.43C38.2776 16.43 39.4476 15.8 40.3076 14.54ZM59.0025 14.42V10.91H70.2825C70.3225 11.47 70.3425 11.9 70.3425 12.2C70.3425 15.3 69.2425 17.95 67.0425 20.15C64.8425 22.35 62.1925 23.45 59.0925 23.45C55.9925 23.45 53.3325 22.35 51.1125 20.15C48.9125 17.95 47.8125 15.3 47.8125 12.2C47.8125 9.1 48.9125 6.45 51.1125 4.25C53.3325 2.03 55.9925 0.919998 59.0925 0.919998C61.6125 0.919998 63.8625 1.68 65.8425 3.2C67.8225 4.7 69.1725 6.64 69.8925 9.02H61.8525C61.0525 8.32 60.1225 7.97 59.0625 7.97C57.8825 7.97 56.8825 8.38 56.0625 9.2C55.2625 10.02 54.8625 11.02 54.8625 12.2C54.8625 13.38 55.2725 14.38 56.0925 15.2C56.9125 16.02 57.9125 16.43 59.0925 16.43C59.8325 16.43 60.5225 16.25 61.1625 15.89C61.8025 15.53 62.3125 15.04 62.6925 14.42H59.0025ZM73.6418 20.15C71.4418 17.95 70.3418 15.3 70.3418 12.2C70.3418 9.1 71.4418 6.45 73.6418 4.25C75.8618 2.03 78.5218 0.919998 81.6218 0.919998C84.7218 0.919998 87.3718 2.03 89.5718 4.25C91.7718 6.45 92.8718 9.1 92.8718 12.2C92.8718 15.3 91.7718 17.95 89.5718 20.15C87.3718 22.35 84.7218 23.45 81.6218 23.45C78.5218 23.45 75.8618 22.35 73.6418 20.15ZM78.6218 9.2C77.8018 10.02 77.3918 11.02 77.3918 12.2C77.3918 13.38 77.8018 14.38 78.6218 15.2C79.4418 16.02 80.4418 16.43 81.6218 16.43C82.7818 16.43 83.7718 16.02 84.5918 15.2C85.4118 14.38 85.8218 13.38 85.8218 12.2C85.8218 11.02 85.4118 10.02 84.5918 9.2C83.7918 8.38 82.8018 7.97 81.6218 7.97C80.4418 7.97 79.4418 8.38 78.6218 9.2ZM93.1711 23V1.37H104.421C106.501 1.37 108.271 2.1 109.731 3.56C111.191 5.02 111.921 6.79 111.921 8.87C111.921 10.17 111.601 11.38 110.961 12.5C110.341 13.6 109.501 14.49 108.441 15.17L112.011 23H103.041L100.521 16.01V23H93.1711ZM100.521 11.3H103.131C103.591 11.3 104.001 11.13 104.361 10.79C104.721 10.43 104.901 10.01 104.901 9.53C104.901 9.07 104.721 8.67 104.361 8.33C104.001 7.97 103.591 7.79 103.131 7.79H100.521V11.3ZM112.214 23V1.37H121.214C124.234 1.37 126.794 2.43 128.894 4.55C131.014 6.65 132.074 9.2 132.074 12.2C132.074 15.2 131.014 17.75 128.894 19.85C126.794 21.95 124.234 23 121.214 23H112.214ZM119.564 16.1H121.214C122.314 16.1 123.244 15.73 124.004 14.99C124.784 14.23 125.174 13.3 125.174 12.2C125.174 11.1 124.784 10.17 124.004 9.41C123.244 8.65 122.314 8.27 121.214 8.27H119.564V16.1ZM132.37 23V1.37H139.75V23H132.37Z" fill="#FDCC03"/>
</svg>
